<svg width="999" height="981" viewBox="0 0 999 981" xmlns="http://www.w3.org/2000/svg" xmlns:xlink="http://www.w3.org/1999/xlink" xml:space="preserve" overflow="hidden"><g transform="translate(-3107 -169)"><g><path d="M3678.86 244.829 3678.86 485.387 4064.14 485.387 4064.14 244.829ZM3720.98 171 3769.96 171 3769.96 203.216 3973.04 203.216 3973.04 171 4022.02 171 4022.02 203.216 4105 203.216 4105 527 3638 527 3638 203.216 3720.98 203.216Z" fill="#607060" fill-rule="evenodd" fill-opacity="1"/><path d="M3696 432.5C3696 428.358 3699.36 425 3703.5 425L3733.5 425C3737.64 425 3741 428.358 3741 432.5L3741 462.5C3741 466.642 3737.64 470 3733.5 470L3703.5 470C3699.36 470 3696 466.642 3696 462.5Z" fill="#A8BFA9" fill-rule="evenodd" fill-opacity="1"/><path d="M3759 432.5C3759 428.358 3762.36 425 3766.5 425L3796.5 425C3800.64 425 3804 428.358 3804 432.5L3804 462.5C3804 466.642 3800.64 470 3796.5 470L3766.5 470C3762.36 470 3759 466.642 3759 462.5Z" fill="#A8BFA9" fill-rule="evenodd" fill-opacity="1"/><path d="M3822 432.5C3822 428.358 3825.36 425 3829.5 425L3859.5 425C3863.64 425 3867 428.358 3867 432.5L3867 462.5C3867 466.642 3863.64 470 3859.5 470L3829.5 470C3825.36 470 3822 466.642 3822 462.5Z" fill="#A8BFA9" fill-rule="evenodd" fill-opacity="1"/><path d="M3880 431.5C3880 427.358 3883.36 424 3887.5 424L3917.5 424C3921.64 424 3925 427.358 3925 431.5L3925 461.5C3925 465.642 3921.64 469 3917.5 469L3887.5 469C3883.36 469 3880 465.642 3880 461.5Z" fill="#A8BFA9" fill-rule="evenodd" fill-opacity="1"/><path d="M3943 431.5C3943 427.358 3946.36 424 3950.5 424L3980.5 424C3984.64 424 3988 427.358 3988 431.5L3988 461.5C3988 465.642 3984.64 469 3980.5 469L3950.5 469C3946.36 469 3943 465.642 3943 461.5Z" fill="#A8BFA9" fill-rule="evenodd" fill-opacity="1"/><path d="M4006 431.5C4006 427.358 4009.36 424 4013.5 424L4043.5 424C4047.64 424 4051 427.358 4051 431.5L4051 461.5C4051 465.642 4047.64 469 4043.5 469L4013.5 469C4009.36 469 4006 465.642 4006 461.5Z" fill="#A8BFA9" fill-rule="evenodd" fill-opacity="1"/><path d="M3696 375.5C3696 371.358 3699.36 368 3703.5 368L3733.5 368C3737.64 368 3741 371.358 3741 375.5L3741 405.5C3741 409.642 3737.64 413 3733.5 413L3703.5 413C3699.36 413 3696 409.642 3696 405.5Z" fill="#A8BFA9" fill-rule="evenodd" fill-opacity="1"/><path d="M3759 375.5C3759 371.358 3762.36 368 3766.5 368L3796.5 368C3800.64 368 3804 371.358 3804 375.5L3804 405.5C3804 409.642 3800.64 413 3796.5 413L3766.5 413C3762.36 413 3759 409.642 3759 405.5Z" fill="#B85348" fill-rule="evenodd" fill-opacity="1"/><path d="M3822 375.5C3822 371.358 3825.36 368 3829.5 368L3859.5 368C3863.64 368 3867 371.358 3867 375.5L3867 405.5C3867 409.642 3863.64 413 3859.5 413L3829.5 413C3825.36 413 3822 409.642 3822 405.5Z" fill="#A8BFA9" fill-rule="evenodd" fill-opacity="1"/><path d="M3880 374.5C3880 370.358 3883.36 367 3887.5 367L3917.5 367C3921.64 367 3925 370.358 3925 374.5L3925 404.5C3925 408.642 3921.64 412 3917.5 412L3887.5 412C3883.36 412 3880 408.642 3880 404.5Z" fill="#A8BFA9" fill-rule="evenodd" fill-opacity="1"/><path d="M3943 374.5C3943 370.358 3946.36 367 3950.5 367L3980.5 367C3984.64 367 3988 370.358 3988 374.5L3988 404.5C3988 408.642 3984.64 412 3980.5 412L3950.5 412C3946.36 412 3943 408.642 3943 404.5Z" fill="#A8BFA9" fill-rule="evenodd" fill-opacity="1"/><path d="M4006 374.5C4006 370.358 4009.36 367 4013.5 367L4043.5 367C4047.64 367 4051 370.358 4051 374.5L4051 404.5C4051 408.642 4047.64 412 4043.5 412L4013.5 412C4009.36 412 4006 408.642 4006 404.5Z" fill="#A8BFA9" fill-rule="evenodd" fill-opacity="1"/><path d="M3694 320.5C3694 316.358 3697.36 313 3701.5 313L3731.5 313C3735.64 313 3739 316.358 3739 320.5L3739 350.5C3739 354.642 3735.64 358 3731.5 358L3701.5 358C3697.36 358 3694 354.642 3694 350.5Z" fill="#A8BFA9" fill-rule="evenodd" fill-opacity="1"/><path d="M3757 320.5C3757 316.358 3760.36 313 3764.5 313L3794.5 313C3798.64 313 3802 316.358 3802 320.5L3802 350.5C3802 354.642 3798.64 358 3794.5 358L3764.5 358C3760.36 358 3757 354.642 3757 350.5Z" fill="#A8BFA9" fill-rule="evenodd" fill-opacity="1"/><path d="M3820 320.5C3820 316.358 3823.36 313 3827.5 313L3857.5 313C3861.64 313 3865 316.358 3865 320.5L3865 350.5C3865 354.642 3861.64 358 3857.5 358L3827.5 358C3823.36 358 3820 354.642 3820 350.5Z" fill="#A8BFA9" fill-rule="evenodd" fill-opacity="1"/><path d="M3878 320.5C3878 316.358 3881.36 313 3885.5 313L3915.5 313C3919.64 313 3923 316.358 3923 320.5L3923 350.5C3923 354.642 3919.64 358 3915.5 358L3885.5 358C3881.36 358 3878 354.642 3878 350.5Z" fill="#A8BFA9" fill-rule="evenodd" fill-opacity="1"/><path d="M3941 320.5C3941 316.358 3944.36 313 3948.5 313L3978.5 313C3982.64 313 3986 316.358 3986 320.5L3986 350.5C3986 354.642 3982.64 358 3978.5 358L3948.5 358C3944.36 358 3941 354.642 3941 350.5Z" fill="#A8BFA9" fill-rule="evenodd" fill-opacity="1"/><path d="M4004 320.5C4004 316.358 4007.36 313 4011.5 313L4041.5 313C4045.64 313 4049 316.358 4049 320.5L4049 350.5C4049 354.642 4045.64 358 4041.5 358L4011.5 358C4007.36 358 4004 354.642 4004 350.5Z" fill="#A8BFA9" fill-rule="evenodd" fill-opacity="1"/><path d="M3876 265.5C3876 261.358 3879.36 258 3883.5 258L3913.5 258C3917.64 258 3921 261.358 3921 265.5L3921 295.5C3921 299.642 3917.64 303 3913.5 303L3883.5 303C3879.36 303 3876 299.642 3876 295.5Z" fill="#A8BFA9" fill-rule="evenodd" fill-opacity="1"/><path d="M3939 265.5C3939 261.358 3942.36 258 3946.5 258L3976.5 258C3980.64 258 3984 261.358 3984 265.5L3984 295.5C3984 299.642 3980.64 303 3976.5 303L3946.5 303C3942.36 303 3939 299.642 3939 295.5Z" fill="#A8BFA9" fill-rule="evenodd" fill-opacity="1"/><path d="M4002 265.5C4002 261.358 4005.36 258 4009.5 258L4039.5 258C4043.64 258 4047 261.358 4047 265.5L4047 295.5C4047 299.642 4043.64 303 4039.5 303L4009.5 303C4005.36 303 4002 299.642 4002 295.5Z" fill="#A8BFA9" fill-rule="evenodd" fill-opacity="1"/><rect x="3288.5" y="317.5" width="233" height="125" stroke="#042433" stroke-width="6.875" stroke-linecap="butt" stroke-linejoin="miter" stroke-miterlimit="8" stroke-opacity="1" fill="#E78B7F" fill-opacity="1"/><path d="M3447.1 824.021 3447.1 929.716 3628.05 929.716 3628.05 824.021ZM3185.07 824.021 3185.07 929.716 3366.02 929.716 3366.02 824.021ZM3447.1 664.639 3447.1 770.334 3628.05 770.334 3628.05 664.639ZM3185.07 664.639 3185.07 770.334 3366.02 770.334 3366.02 664.639ZM3447.1 505.257 3447.1 610.951 3628.05 610.951 3628.05 505.257ZM3185.07 505.257 3185.07 610.951 3366.02 610.951 3366.02 505.257ZM3113.5 434.5 3696.5 434.5 3696.5 1143.5 3495.47 1143.5 3495.47 1010.33 3314.53 1010.33 3314.53 1143.5 3113.5 1143.5Z" stroke="#042433" stroke-width="6.875" stroke-linecap="butt" stroke-linejoin="miter" stroke-miterlimit="8" stroke-opacity="1" fill="#E78B7F" fill-rule="evenodd" fill-opacity="1"/><path d="M3365.5 363.091 3392.09 363.091 3392.09 336.5 3416.91 336.5 3416.91 363.091 3443.5 363.091 3443.5 387.909 3416.91 387.909 3416.91 414.5 3392.09 414.5 3392.09 387.909 3365.5 387.909Z" stroke="#042433" stroke-width="6.875" stroke-linecap="butt" stroke-linejoin="miter" stroke-miterlimit="8" stroke-opacity="1" fill="#B85348" fill-rule="evenodd" fill-opacity="1"/></g></g></svg>