<svg width="1104" height="788" xmlns="http://www.w3.org/2000/svg" xmlns:xlink="http://www.w3.org/1999/xlink" xml:space="preserve" overflow="hidden"><defs><clipPath id="clip0"><rect x="1815" y="165" width="1104" height="788"/></clipPath><clipPath id="clip1"><rect x="1815" y="165" width="1104" height="788"/></clipPath></defs><g clip-path="url(#clip0)" transform="translate(-1815 -165)"><g clip-path="url(#clip1)"><path d="M1848.37 223.69 1848.37 414.92 2153.63 414.92 2153.63 223.69ZM1881.74 165 1920.55 165 1920.55 190.61 2081.45 190.61 2081.45 165 2120.26 165 2120.26 190.61 2186 190.61 2186 448 1816 448 1816 190.61 1881.74 190.61Z" fill="#607060" fill-rule="evenodd" fill-opacity="1"/><path d="M1862 373C1862 369.686 1864.69 367 1868 367L1892 367C1895.31 367 1898 369.686 1898 373L1898 397C1898 400.314 1895.31 403 1892 403L1868 403C1864.69 403 1862 400.314 1862 397Z" fill="#A8BFA9" fill-rule="evenodd" fill-opacity="1"/><path d="M1912 373C1912 369.686 1914.69 367 1918 367L1942 367C1945.31 367 1948 369.686 1948 373L1948 397C1948 400.314 1945.31 403 1942 403L1918 403C1914.69 403 1912 400.314 1912 397Z" fill="#A8BFA9" fill-rule="evenodd" fill-opacity="1"/><path d="M1962 373C1962 369.686 1964.69 367 1968 367L1992 367C1995.31 367 1998 369.686 1998 373L1998 397C1998 400.314 1995.31 403 1992 403L1968 403C1964.69 403 1962 400.314 1962 397Z" fill="#A8BFA9" fill-rule="evenodd" fill-opacity="1"/><path d="M2008 372.834C2008 369.612 2010.61 367 2013.83 367L2038.17 367C2041.39 367 2044 369.612 2044 372.834L2044 396.166C2044 399.388 2041.39 402 2038.17 402L2013.83 402C2010.61 402 2008 399.388 2008 396.166Z" fill="#A8BFA9" fill-rule="evenodd" fill-opacity="1"/><path d="M2058 372.834C2058 369.612 2060.61 367 2063.83 367L2088.17 367C2091.39 367 2094 369.612 2094 372.834L2094 396.166C2094 399.388 2091.39 402 2088.17 402L2063.83 402C2060.61 402 2058 399.388 2058 396.166Z" fill="#A8BFA9" fill-rule="evenodd" fill-opacity="1"/><path d="M2108 372.834C2108 369.612 2110.61 367 2113.83 367L2137.17 367C2140.39 367 2143 369.612 2143 372.834L2143 396.167C2143 399.388 2140.39 402 2137.17 402L2113.83 402C2110.61 402 2108 399.388 2108 396.167Z" fill="#A8BFA9" fill-rule="evenodd" fill-opacity="1"/><path d="M1862 327.833C1862 324.612 1864.61 322 1867.83 322L1892.17 322C1895.39 322 1898 324.612 1898 327.833L1898 351.166C1898 354.388 1895.39 356.999 1892.17 356.999L1867.83 356.999C1864.61 356.999 1862 354.388 1862 351.166Z" fill="#A8BFA9" fill-rule="evenodd" fill-opacity="1"/><path d="M1912 327.833C1912 324.612 1914.61 322 1917.83 322L1942.17 322C1945.39 322 1948 324.612 1948 327.833L1948 351.166C1948 354.388 1945.39 357 1942.17 357L1917.83 357C1914.61 357 1912 354.388 1912 351.166Z" fill="#A8BFA9" fill-rule="evenodd" fill-opacity="1"/><path d="M1962 327.833C1962 324.612 1964.61 322 1967.83 322L1992.17 322C1995.39 322 1998 324.612 1998 327.833L1998 351.166C1998 354.388 1995.39 356.999 1992.17 356.999L1967.83 356.999C1964.61 356.999 1962 354.388 1962 351.166Z" fill="#A8BFA9" fill-rule="evenodd" fill-opacity="1"/><path d="M2008 327C2008 323.686 2010.69 321 2014 321L2038 321C2041.31 321 2044 323.686 2044 327L2044 351C2044 354.314 2041.31 357 2038 357L2014 357C2010.69 357 2008 354.314 2008 351Z" fill="#A8BFA9" fill-rule="evenodd" fill-opacity="1"/><path d="M2058 327C2058 323.686 2060.69 321 2064 321L2088 321C2091.31 321 2094 323.686 2094 327L2094 351C2094 354.314 2091.31 357 2088 357L2064 357C2060.69 357 2058 354.314 2058 351Z" fill="#A8BFA9" fill-rule="evenodd" fill-opacity="1"/><path d="M2108 326.833C2108 323.612 2110.61 321 2113.83 321L2137.17 321C2140.39 321 2143 323.612 2143 326.833L2143 351.167C2143 354.388 2140.39 357 2137.17 357L2113.83 357C2110.61 357 2108 354.388 2108 351.167Z" fill="#A8BFA9" fill-rule="evenodd" fill-opacity="1"/><path d="M1861 283.833C1861 280.612 1863.61 278 1866.83 278L1890.17 278C1893.39 278 1896 280.612 1896 283.833L1896 308.166C1896 311.388 1893.39 314 1890.17 314L1866.83 314C1863.61 314 1861 311.388 1861 308.166Z" fill="#A8BFA9" fill-rule="evenodd" fill-opacity="1"/><path d="M1911 283.833C1911 280.612 1913.61 278 1916.83 278L1940.17 278C1943.39 278 1946 280.612 1946 283.833L1946 308.166C1946 311.388 1943.39 314 1940.17 314L1916.83 314C1913.61 314 1911 311.388 1911 308.166Z" fill="#A8BFA9" fill-rule="evenodd" fill-opacity="1"/><path d="M1961 283.833C1961 280.612 1963.61 278 1966.83 278L1990.17 278C1993.39 278 1996 280.612 1996 283.833L1996 308.166C1996 311.388 1993.39 314 1990.17 314L1966.83 314C1963.61 314 1961 311.388 1961 308.166Z" fill="#A8BFA9" fill-rule="evenodd" fill-opacity="1"/><path d="M2007 283.833C2007 280.612 2009.61 278 2012.83 278L2036.17 278C2039.39 278 2042 280.612 2042 283.833L2042 308.166C2042 311.388 2039.39 314 2036.17 314L2012.83 314C2009.61 314 2007 311.388 2007 308.166Z" fill="#B85348" fill-rule="evenodd" fill-opacity="1"/><path d="M2057 283.833C2057 280.612 2059.61 278 2062.83 278L2086.17 278C2089.39 278 2092 280.612 2092 283.833L2092 308.166C2092 311.388 2089.39 314 2086.17 314L2062.83 314C2059.61 314 2057 311.388 2057 308.166Z" fill="#A8BFA9" fill-rule="evenodd" fill-opacity="1"/><path d="M2106 284C2106 280.686 2108.69 278 2112 278L2136 278C2139.31 278 2142 280.686 2142 284L2142 308C2142 311.314 2139.31 314 2136 314L2112 314C2108.69 314 2106 311.314 2106 308Z" fill="#A8BFA9" fill-rule="evenodd" fill-opacity="1"/><path d="M2005 240.833C2005 237.612 2007.61 235 2010.83 235L2035.17 235C2038.39 235 2041 237.612 2041 240.833L2041 264.166C2041 267.388 2038.39 269.999 2035.17 269.999L2010.83 269.999C2007.61 269.999 2005 267.388 2005 264.166Z" fill="#A8BFA9" fill-rule="evenodd" fill-opacity="1"/><path d="M2055 240.834C2055 237.612 2057.61 235 2060.83 235L2085.17 235C2088.39 235 2091 237.612 2091 240.834L2091 264.166C2091 267.388 2088.39 270 2085.17 270L2060.83 270C2057.61 270 2055 267.388 2055 264.166Z" fill="#A8BFA9" fill-rule="evenodd" fill-opacity="1"/><path d="M2105 240.833C2105 237.612 2107.61 235 2110.83 235L2135.17 235C2138.39 235 2141 237.612 2141 240.833L2141 264.166C2141 267.388 2138.39 269.999 2135.17 269.999L2110.83 269.999C2107.61 269.999 2105 267.388 2105 264.166Z" fill="#A8BFA9" fill-rule="evenodd" fill-opacity="1"/><path d="M2378.5 700.178C2516.46 700.178 2631.56 798.137 2658.18 928.36L2659.5 941.5 2097.5 941.5 2098.82 928.36C2125.44 798.137 2240.54 700.178 2378.5 700.178ZM2393.77 231.5C2472.35 231.5 2539.78 284.687 2568.58 360.488L2577.05 390.875 2602.32 461.051 2581.83 461.051 2580.42 476.637 2566.92 473.91C2530.23 473.91 2500.48 503.688 2500.48 540.42 2500.48 558.786 2507.92 575.413 2519.94 587.449L2526.89 592.138 2514.45 605.661C2481.65 635.789 2439.61 653.888 2393.77 653.888 2288.98 653.888 2204.04 559.333 2204.04 442.694 2204.04 326.055 2288.98 231.5 2393.77 231.5Z" stroke="#F2F2F2" stroke-width="20.625" stroke-linecap="butt" stroke-linejoin="miter" stroke-miterlimit="8" stroke-opacity="1" fill="#262626" fill-rule="evenodd" fill-opacity="1"/><path d="M12.2748 80.5603 22.7133 89.413 28.153 82.9986 26.141 81.2923 29.017 77.901 31.2447 79.4345C38.2224 83.2603 46.1783 84.4394 53.7266 83.0855L55.5467 82.5986 56.7781 85.0799 53.7932 86.5612 58.515 96.076 73.9995 88.3919 69.2777 78.877 66.293 80.3581 65.4143 78.5876 69.4382 75.8134C70.9776 74.5412 72.4265 73.116 73.7634 71.5397 76.8191 67.9365 78.9999 63.8847 80.3272 59.6426L81.6648 53.244 87.8381 53.244 87.8381 55.3675 94.6072 55.3675 94.6072 44.3515 87.8381 44.3515 87.8381 46.4749 81.7459 46.4749 80.6095 40.1427C79.7202 36.9697 78.3686 33.9079 76.5638 31.0664L74.8405 28.7562 78.2693 24.1462 79.8097 25.2918 83.4617 20.3817 75.4711 14.4384 71.819 19.3485 73.3593 20.494 70.6432 24.1457 69.7986 23.3119C64.3939 18.7284 57.9795 16.1133 51.4282 15.3949L47.1238 15.3367 48.309 11.0511 50.8519 11.7543 53.0937 3.64832 39.902 0 37.6602 8.10599 40.203 8.80924 38.0475 16.6033 32.2363 18.8582C28.268 20.8603 24.6267 23.6737 21.571 27.2768 20.2341 28.8531 19.0647 30.5154 18.061 32.2419L18.0422 32.2818 10.0774 30.9842 10.5016 28.3802 2.20072 27.0279 0 40.5367 8.30086 41.889 8.72506 39.2851 14.8112 40.2766 14.0124 43.1985C12.2716 52.6827 14.5837 62.6901 20.7261 70.514L22.6028 72.4612 19.7267 75.8525 17.7145 74.1461Z" fill="#5F7E62" fill-rule="evenodd" fill-opacity="1" transform="matrix(0.762665 0.646794 0.646794 -0.762665 2517.93 560.951)"/><path d="M14.9296 97.9837 27.6257 108.751 34.2419 100.949 31.7947 98.874 35.2928 94.7492 38.0023 96.6144C46.489 101.268 56.1656 102.702 65.3465 101.055L67.5602 100.463 69.0579 103.481 65.4275 105.282 71.1705 116.855 90.004 107.509 84.261 95.9363 80.6307 97.7378 79.562 95.5843 84.4562 92.2102C86.3285 90.6628 88.0908 88.9294 89.7168 87.0121 93.4334 82.6297 96.0859 77.7015 97.7002 72.542L99.3272 64.7595 106.836 64.7595 106.836 67.3423 115.069 67.3423 115.069 53.9437 106.836 53.9437 106.836 56.5263 99.4258 56.5263 98.0436 48.8247C96.962 44.9655 95.3181 41.2415 93.1229 37.7854L91.0268 34.9755 95.1973 29.3684 97.0708 30.7619 101.513 24.7898 91.7939 17.5611 87.3519 23.5331 89.2253 24.9264 85.9219 29.3679 84.8945 28.3538C78.3209 22.7789 70.5192 19.5982 62.5511 18.7245L57.3156 18.6536 58.7572 13.4412 61.8501 14.2965 64.5767 4.43737 48.532 0 45.8053 9.85913 48.8981 10.7145 46.2764 20.1942 39.2083 22.9368C34.3817 25.3719 29.9529 28.7937 26.2364 33.1762 24.6103 35.0934 23.1879 37.1152 21.9672 39.2151L21.9444 39.2636 12.2569 37.6854 12.7729 34.5182 2.67669 32.8735 0 49.3039 10.0962 50.9487 10.6121 47.7816 18.0145 48.9875 17.043 52.5414C14.9256 64.0768 17.7378 76.2486 25.2087 85.7647L27.4913 88.1329 23.9932 92.2578 21.5458 90.1822Z" fill="#5F7E62" fill-rule="evenodd" fill-opacity="1" transform="matrix(0.762665 0.646794 0.646794 -0.762665 2626.43 465.53)"/><path d="M7.8619 51.5981 14.5476 57.2681 18.0317 53.1598 16.743 52.0669 18.5851 49.8948 20.0119 50.877C24.481 53.3274 29.5767 54.0826 34.4113 53.2155L35.5771 52.9036 36.3657 54.4929 34.454 55.4416 37.4782 61.5358 47.3959 56.6141 44.3716 50.5199 42.4599 51.4686 41.8972 50.3346 44.4744 48.5578C45.4604 47.7429 46.3884 46.8301 47.2447 45.8205 49.2018 43.5127 50.5986 40.9175 51.4487 38.2005L52.3055 34.1022 56.2594 34.1022 56.2594 35.4623 60.5949 35.4623 60.5949 28.4067 56.2594 28.4067 56.2594 29.7667 52.3574 29.7667 51.6295 25.711C51.0599 23.6787 50.1943 21.7177 49.0383 19.8978L47.9345 18.4181 50.1307 15.4654 51.1172 16.1992 53.4563 13.0543 48.3385 9.24764 45.9993 12.3925 46.9858 13.1262 45.2462 15.4651 44.7053 14.9311C41.2436 11.9954 37.1353 10.3204 32.9392 9.8603L30.1823 9.82298 30.9414 7.07809 32.5701 7.52852 34.0059 2.33671 25.5568 0 24.121 5.1918 25.7496 5.64223 24.369 10.6342 20.647 12.0785C18.1053 13.3608 15.7731 15.1627 13.816 17.4705 12.9597 18.4801 12.2107 19.5448 11.5679 20.6506L11.5559 20.6762 6.45446 19.8451 6.72615 18.1772 1.40954 17.3111 0 25.9633 5.31662 26.8295 5.58831 25.1617 9.4864 25.7967 8.97478 27.6682C7.85981 33.7427 9.34071 40.1524 13.2748 45.1635L14.4768 46.4107 12.6347 48.5828 11.346 47.4898Z" fill="#5F7E62" fill-rule="evenodd" fill-opacity="1" transform="matrix(0.762665 0.646794 0.646794 -0.762665 2691.24 596.037)"/><path d="M12.2748 80.5603 22.7133 89.413 28.153 82.9986 26.141 81.2923 29.017 77.901 31.2447 79.4345C38.2224 83.2603 46.1783 84.4394 53.7266 83.0855L55.5467 82.5986 56.7781 85.0799 53.7932 86.5612 58.515 96.076 73.9995 88.3919 69.2777 78.877 66.293 80.3581 65.4143 78.5876 69.4382 75.8134C70.9776 74.5412 72.4265 73.116 73.7634 71.5397 76.8191 67.9365 78.9999 63.8847 80.3272 59.6426L81.6648 53.244 87.8381 53.244 87.8381 55.3675 94.6072 55.3675 94.6072 44.3515 87.8381 44.3515 87.8381 46.4749 81.7459 46.4749 80.6095 40.1427C79.7202 36.9697 78.3686 33.9079 76.5638 31.0664L74.8405 28.7562 78.2693 24.1462 79.8097 25.2918 83.4617 20.3817 75.4711 14.4384 71.819 19.3485 73.3593 20.494 70.6432 24.1457 69.7986 23.3119C64.3939 18.7284 57.9795 16.1133 51.4282 15.3949L47.1238 15.3367 48.309 11.0511 50.8519 11.7543 53.0937 3.64832 39.902 0 37.6602 8.10599 40.203 8.80924 38.0475 16.6033 32.2363 18.8582C28.268 20.8603 24.6267 23.6737 21.571 27.2768 20.2341 28.8531 19.0647 30.5154 18.061 32.2419L18.0422 32.2818 10.0774 30.9842 10.5016 28.3802 2.20072 27.0279 0 40.5367 8.30086 41.889 8.72506 39.2851 14.8112 40.2766 14.0124 43.1985C12.2716 52.6827 14.5837 62.6901 20.7261 70.514L22.6028 72.4612 19.7267 75.8525 17.7145 74.1461Z" fill="#5F7E62" fill-rule="evenodd" fill-opacity="1" transform="matrix(0.762665 0.646794 0.646794 -0.762665 2763.98 325.82)"/><path d="M15.0158 98.5496 27.7852 109.379 34.4396 101.532 31.9783 99.445 35.4965 95.2964 38.2217 97.1724C46.7575 101.853 56.4899 103.295 65.7238 101.639L67.9503 101.043 69.4567 104.078 65.8053 105.89 71.5815 117.53 90.5237 108.13 84.7475 96.4904 81.0963 98.3022 80.0214 96.1364 84.9438 92.7427C86.827 91.1864 88.5994 89.4429 90.2348 87.5146 93.9729 83.1069 96.6407 78.1502 98.2643 72.9609L99.9007 65.1335 107.452 65.1335 107.452 67.7312 115.733 67.7312 115.733 54.2552 107.452 54.2552 107.452 56.8528 99.9999 56.8528 98.6097 49.1067C97.5218 45.2251 95.8684 41.4796 93.6606 38.0036L91.5524 35.1775 95.747 29.5381 97.6313 30.9395 102.099 24.933 92.3239 17.6625 87.8563 23.669 89.7405 25.0704 86.418 29.5375 85.3847 28.5175C78.7731 22.9105 70.9264 19.7114 62.9122 18.8326L57.6466 18.7614 59.0965 13.5188 62.2072 14.3791 64.9496 4.46299 48.8122 0 46.0698 9.91607 49.1804 10.7764 46.5436 20.3108 39.4347 23.0692C34.5802 25.5185 30.1258 28.96 26.3879 33.3678 24.7524 35.2961 23.3218 37.3296 22.094 39.4416L22.0711 39.4904 12.3277 37.903 12.8466 34.7175 2.69214 33.0633 0 49.5886 10.1545 51.2429 10.6734 48.0576 18.1185 49.2704 17.1414 52.8449C15.0118 64.4468 17.8403 76.6889 25.3543 86.26L27.65 88.6419 24.1317 92.7906 21.6702 90.703Z" fill="#5F7E62" fill-rule="evenodd" fill-opacity="1" transform="matrix(0.762665 0.646794 0.646794 -0.762665 2777.26 549.125)"/><path d="M6.65028 43.6461 12.3057 48.4423 15.2528 44.9671 14.1627 44.0427 15.7209 42.2053 16.9278 43.0361C20.7082 45.1089 25.0185 45.7477 29.1081 45.0142L30.0942 44.7504 30.7613 46.0947 29.1442 46.8972 31.7024 52.0522 40.0916 47.8891 37.5334 42.7341 35.9163 43.5365 35.4403 42.5773 37.6203 41.0743C38.4543 40.3851 39.2394 39.6129 39.9636 38.7589 41.6192 36.8068 42.8007 34.6115 43.5198 32.3133L44.2445 28.8466 47.5891 28.8466 47.5891 29.9971 51.2565 29.9971 51.2565 24.0288 47.5891 24.0288 47.5891 25.1792 44.2885 25.1792 43.6727 21.7486C43.191 20.0295 42.4587 18.3707 41.4808 16.8312L40.5472 15.5796 42.4049 13.0819 43.2394 13.7026 45.218 11.0424 40.8889 7.82245 38.9102 10.4826 39.7447 11.1033 38.2732 13.0817 37.8156 12.63C34.8874 10.1467 31.4122 8.72989 27.8629 8.34068L25.5308 8.30912 26.1729 5.98726 27.5506 6.36827 28.7652 1.97659 21.6182 0 20.4036 4.39167 21.7813 4.77268 20.6134 8.99534 17.465 10.217C15.3151 11.3017 13.3423 12.826 11.6868 14.7781 10.9625 15.6321 10.3289 16.5327 9.7851 17.4681L9.77495 17.4897 5.45974 16.7867 5.68957 15.3759 1.19231 14.6432 0 21.962 4.49726 22.6947 4.72708 21.284 8.02442 21.8211 7.59165 23.4042C6.64851 28.5425 7.90118 33.9643 11.229 38.2032L12.2458 39.2581 10.6876 41.0955 9.59741 40.171Z" fill="#5F7E62" fill-rule="evenodd" fill-opacity="1" transform="matrix(0.762665 0.646794 0.646794 -0.762665 2852.04 408.859)"/></g></g></svg>